<mxfile host="app.diagrams.net" agent="Mozilla/5.0 (Windows NT 10.0; Win64; x64) AppleWebKit/537.36 (KHTML, like Gecko) Chrome/131.0.0.0 Safari/537.36" version="24.8.8">
  <diagram id="C5RBs43oDa-KdzZeNtuy" name="Page-1">
    <mxGraphModel dx="2797" dy="1651" grid="1" gridSize="10" guides="1" tooltips="1" connect="1" arrows="1" fold="1" page="1" pageScale="1" pageWidth="1169" pageHeight="827" math="0" shadow="0">
      <root>
        <mxCell id="WIyWlLk6GJQsqaUBKTNV-0" />
        <mxCell id="WIyWlLk6GJQsqaUBKTNV-1" parent="WIyWlLk6GJQsqaUBKTNV-0" />
        <mxCell id="bVRjCQ_B58bXz5kEhXcc-12" style="edgeStyle=orthogonalEdgeStyle;rounded=0;orthogonalLoop=1;jettySize=auto;html=1;startArrow=diamondThin;startFill=0;endArrow=none;endFill=0;startSize=12;strokeWidth=2;endSize=12;" parent="WIyWlLk6GJQsqaUBKTNV-1" source="bVRjCQ_B58bXz5kEhXcc-0" target="Or8rvx1L4nkpCHTU0M23-4" edge="1">
          <mxGeometry relative="1" as="geometry">
            <mxPoint x="451" y="311" as="sourcePoint" />
            <Array as="points">
              <mxPoint x="650" y="220" />
              <mxPoint x="650" y="220" />
            </Array>
          </mxGeometry>
        </mxCell>
        <mxCell id="bVRjCQ_B58bXz5kEhXcc-15" style="edgeStyle=orthogonalEdgeStyle;shape=connector;rounded=0;orthogonalLoop=1;jettySize=auto;html=1;strokeColor=default;strokeWidth=2;align=center;verticalAlign=middle;fontFamily=Helvetica;fontSize=11;fontColor=default;labelBackgroundColor=default;startArrow=diamondThin;startFill=0;startSize=12;endArrow=none;endFill=0;endSize=12;" parent="WIyWlLk6GJQsqaUBKTNV-1" source="bVRjCQ_B58bXz5kEhXcc-0" target="bVRjCQ_B58bXz5kEhXcc-4" edge="1">
          <mxGeometry relative="1" as="geometry">
            <Array as="points">
              <mxPoint x="215" y="270" />
              <mxPoint x="215" y="270" />
            </Array>
          </mxGeometry>
        </mxCell>
        <mxCell id="ktp8bwMWxdayU_RDx3ty-13" style="edgeStyle=orthogonalEdgeStyle;rounded=0;orthogonalLoop=1;jettySize=auto;html=1;dashed=1;endArrow=open;endFill=0;strokeWidth=2;" edge="1" parent="WIyWlLk6GJQsqaUBKTNV-1" source="bVRjCQ_B58bXz5kEhXcc-0" target="oYd0NgwK_6_6nimxyRu1-9">
          <mxGeometry relative="1" as="geometry">
            <Array as="points">
              <mxPoint x="540" y="-630" />
            </Array>
          </mxGeometry>
        </mxCell>
        <mxCell id="ktp8bwMWxdayU_RDx3ty-14" value="&amp;lt;&amp;lt;use&amp;gt;&amp;gt;" style="edgeLabel;html=1;align=center;verticalAlign=middle;resizable=0;points=[];" vertex="1" connectable="0" parent="ktp8bwMWxdayU_RDx3ty-13">
          <mxGeometry x="0.0809" y="-1" relative="1" as="geometry">
            <mxPoint as="offset" />
          </mxGeometry>
        </mxCell>
        <mxCell id="bVRjCQ_B58bXz5kEhXcc-0" value="AAbstractWaveManager" style="swimlane;fontStyle=1;align=center;verticalAlign=top;childLayout=stackLayout;horizontal=1;startSize=26;horizontalStack=0;resizeParent=1;resizeParentMax=0;resizeLast=0;collapsible=1;marginBottom=0;whiteSpace=wrap;html=1;" parent="WIyWlLk6GJQsqaUBKTNV-1" vertex="1">
          <mxGeometry x="140" y="-270" width="450" height="500" as="geometry" />
        </mxCell>
        <mxCell id="bVRjCQ_B58bXz5kEhXcc-1" value="- bIsWaveActive: bool&lt;div&gt;-&amp;nbsp;DeadEnemyStack:&amp;nbsp;TArray&amp;lt;TObjectPtr&amp;lt;AAbstractEnemy&amp;gt;&amp;gt;&lt;/div&gt;&lt;div&gt;+&amp;nbsp;EndNode:&amp;nbsp;TObjectPtr&amp;lt;AGraphNode&amp;gt;&lt;br&gt;- EnemiesInWave: int64&lt;/div&gt;&lt;div&gt;- EnemiesInWaveStack: TArray&amp;lt;TObjectPtr&amp;lt;AAbstractEnemy&amp;gt;&amp;gt;&lt;br&gt;&lt;div&gt;- DeadEnemyStack: TArray&amp;lt;TObjectPtr&amp;lt;AAbstractEnemy&amp;gt;&amp;gt;&lt;/div&gt;&lt;div&gt;+&amp;nbsp;EndNode:&amp;nbsp;TObjectPtr&amp;lt;ABuildingSlot&amp;gt;&lt;/div&gt;&lt;div&gt;-&amp;nbsp;EnemiesInWave: int64&lt;/div&gt;&lt;div&gt;-&amp;nbsp;EnemiesInWaveStack:&amp;nbsp;TArray&amp;lt;TObjectPtr&amp;lt;AAbstractEnemy&amp;gt;&amp;gt;&lt;/div&gt;&lt;div&gt;# NewEnemiesPerWave: int64&lt;/div&gt;&lt;div&gt;# NewEnemiesQueue:&amp;nbsp;&lt;span style=&quot;background-color: initial;&quot;&gt;TDeque&amp;lt;TObjectPtr&amp;lt;AAbstractEnemy&amp;gt;&amp;gt;&lt;/span&gt;&lt;/div&gt;&lt;div&gt;&lt;span style=&quot;background-color: initial;&quot;&gt;- Path:&amp;nbsp;&lt;/span&gt;&lt;span style=&quot;background-color: initial;&quot;&gt;TDeque&amp;lt;TObjectPtr&amp;lt;AGraphNode&amp;gt;&amp;gt;&lt;/span&gt;&lt;/div&gt;&lt;div&gt;&lt;span style=&quot;background-color: initial;&quot;&gt;- SpawnRateInSeconds: float&lt;/span&gt;&lt;/div&gt;&lt;div&gt;+&amp;nbsp;StartNode:&amp;nbsp;TObjectPtr&amp;lt;ABuildingSlot&amp;gt;&lt;/div&gt;&lt;/div&gt;&lt;div&gt;- TimeUntilSpawn: float&lt;/div&gt;" style="text;strokeColor=none;fillColor=none;align=left;verticalAlign=top;spacingLeft=4;spacingRight=4;overflow=hidden;rotatable=0;points=[[0,0.5],[1,0.5]];portConstraint=eastwest;whiteSpace=wrap;html=1;" parent="bVRjCQ_B58bXz5kEhXcc-0" vertex="1">
          <mxGeometry y="26" width="450" height="244" as="geometry" />
        </mxCell>
        <mxCell id="bVRjCQ_B58bXz5kEhXcc-2" value="" style="line;strokeWidth=1;fillColor=none;align=left;verticalAlign=middle;spacingTop=-1;spacingLeft=3;spacingRight=3;rotatable=0;labelPosition=right;points=[];portConstraint=eastwest;strokeColor=inherit;" parent="bVRjCQ_B58bXz5kEhXcc-0" vertex="1">
          <mxGeometry y="270" width="450" height="8" as="geometry" />
        </mxCell>
        <mxCell id="bVRjCQ_B58bXz5kEhXcc-3" value="+&amp;nbsp;AAbstractWaveManager()&lt;div&gt;+&amp;nbsp;AddDeadEnemy(enemy: TObjectPtr&amp;lt;AAbstractEnemy&amp;gt;): void&lt;/div&gt;&lt;div&gt;-&amp;nbsp;AddNewEnemiesToWave(): int64&lt;/div&gt;&lt;div&gt;+&amp;nbsp;&lt;span style=&quot;white-space: normal;&quot;&gt;&lt;span style=&quot;background-color: initial;&quot;&gt;AddNewEnemy(newEnemy:&amp;nbsp;&lt;/span&gt;&lt;/span&gt;&lt;span style=&quot;background-color: initial;&quot;&gt;AAbstractEnemy*&lt;/span&gt;&lt;span style=&quot;background-color: initial;&quot;&gt;&lt;span style=&quot;background-color: initial;&quot;&gt;):&amp;nbsp;&lt;/span&gt;&lt;/span&gt;&lt;span style=&quot;background-color: initial;&quot;&gt;void&lt;/span&gt;&lt;/div&gt;&lt;div&gt;&lt;span style=&quot;background-color: initial;&quot;&gt;+&amp;nbsp;&lt;/span&gt;&lt;span style=&quot;white-space: normal;&quot;&gt;&lt;span style=&quot;background-color: initial;&quot;&gt;AddNewEnemyFromClass(&lt;/span&gt;&lt;/span&gt;&lt;span style=&quot;background-color: initial;&quot;&gt;enemyClass&lt;/span&gt;&lt;span style=&quot;background-color: initial;&quot;&gt;&lt;span style=&quot;background-color: initial;&quot;&gt;: TSubclassOf&amp;lt;AAbstractEnemy&amp;gt;):&amp;nbsp;&lt;/span&gt;&lt;/span&gt;&lt;span style=&quot;background-color: initial;&quot;&gt;void&lt;/span&gt;&lt;span style=&quot;background-color: initial;&quot;&gt;&amp;nbsp;&lt;/span&gt;&lt;/div&gt;&lt;div&gt;# BeginPlay(): void&lt;/div&gt;&lt;div&gt;+&amp;nbsp;&lt;span style=&quot;white-space: normal;&quot;&gt;&lt;span style=&quot;background-color: initial;&quot;&gt;CreatePath(): bool&lt;/span&gt;&lt;/span&gt;&lt;/div&gt;&lt;div&gt;&lt;span style=&quot;background-color: initial;&quot;&gt;&lt;div style=&quot;&quot;&gt;&lt;span style=&quot;white-space: normal;&quot;&gt;# EndPlay(&lt;b&gt;EndPlayReason:&amp;nbsp;&lt;/b&gt;&lt;/span&gt;&lt;span style=&quot;background-color: initial;&quot;&gt;&lt;b&gt;EEndPlayReason::Type&lt;/b&gt;&lt;/span&gt;&lt;span style=&quot;background-color: initial;&quot;&gt;):&amp;nbsp;&lt;/span&gt;&lt;span style=&quot;background-color: initial;&quot;&gt;void&lt;/span&gt;&lt;span style=&quot;background-color: initial;&quot;&gt;&amp;nbsp;&lt;/span&gt;&lt;/div&gt;&lt;/span&gt;&lt;/div&gt;&lt;div&gt;+&amp;nbsp;EndWave(): void&lt;/div&gt;&lt;div&gt;+&amp;nbsp;GetIsWaveActive(): bool&lt;/div&gt;&lt;div&gt;+&amp;nbsp;SpawnEnemyPrototypeFunction(enemy: AAbstractEnemy*): void&lt;/div&gt;&lt;div&gt;-&amp;nbsp;SpawnNextEnemy(): void&lt;/div&gt;&lt;div&gt;+&amp;nbsp;StartWave(): void&lt;/div&gt;&lt;div&gt;+&amp;nbsp;Tick(float): void&lt;br&gt;&lt;/div&gt;" style="text;strokeColor=none;fillColor=none;align=left;verticalAlign=top;spacingLeft=4;spacingRight=4;overflow=hidden;rotatable=0;points=[[0,0.5],[1,0.5]];portConstraint=eastwest;whiteSpace=wrap;html=1;" parent="bVRjCQ_B58bXz5kEhXcc-0" vertex="1">
          <mxGeometry y="278" width="450" height="222" as="geometry" />
        </mxCell>
        <mxCell id="abqN74poVczzxeBeDxSv-9" style="edgeStyle=orthogonalEdgeStyle;rounded=0;orthogonalLoop=1;jettySize=auto;html=1;endArrow=open;endFill=0;startSize=12;endSize=12;strokeWidth=2;startArrow=cross;startFill=0;" parent="WIyWlLk6GJQsqaUBKTNV-1" source="bVRjCQ_B58bXz5kEhXcc-4" target="abqN74poVczzxeBeDxSv-4" edge="1">
          <mxGeometry relative="1" as="geometry" />
        </mxCell>
        <mxCell id="bVRjCQ_B58bXz5kEhXcc-4" value="AAbstractEnemy" style="swimlane;fontStyle=1;align=center;verticalAlign=top;childLayout=stackLayout;horizontal=1;startSize=26;horizontalStack=0;resizeParent=1;resizeParentMax=0;resizeLast=0;collapsible=1;marginBottom=0;whiteSpace=wrap;html=1;" parent="WIyWlLk6GJQsqaUBKTNV-1" vertex="1">
          <mxGeometry x="10" y="360" width="410" height="370" as="geometry" />
        </mxCell>
        <mxCell id="bVRjCQ_B58bXz5kEhXcc-5" value="&lt;div&gt;#&amp;nbsp;DamageDealt: int64&lt;/div&gt;# healthCurrent: int64&lt;div&gt;#&amp;nbsp;healthMax: int64&lt;/div&gt;&lt;div&gt;# isAlive: bool&lt;/div&gt;&lt;div&gt;+&amp;nbsp;OverlapSphere:&amp;nbsp;TObjectPtr&amp;lt;USphereComponent&amp;gt;&lt;/div&gt;&lt;div&gt;#&amp;nbsp;pathQueue:&amp;nbsp;TDeque&amp;lt;TObjectPtr&amp;lt;AGraphNode&amp;gt;&amp;gt;&lt;/div&gt;&lt;div&gt;# queueIndex: int64&lt;/div&gt;&lt;div&gt;# speed: double&lt;/div&gt;" style="text;strokeColor=none;fillColor=none;align=left;verticalAlign=top;spacingLeft=4;spacingRight=4;overflow=hidden;rotatable=0;points=[[0,0.5],[1,0.5]];portConstraint=eastwest;whiteSpace=wrap;html=1;" parent="bVRjCQ_B58bXz5kEhXcc-4" vertex="1">
          <mxGeometry y="26" width="410" height="134" as="geometry" />
        </mxCell>
        <mxCell id="bVRjCQ_B58bXz5kEhXcc-6" value="" style="line;strokeWidth=1;fillColor=none;align=left;verticalAlign=middle;spacingTop=-1;spacingLeft=3;spacingRight=3;rotatable=0;labelPosition=right;points=[];portConstraint=eastwest;strokeColor=inherit;" parent="bVRjCQ_B58bXz5kEhXcc-4" vertex="1">
          <mxGeometry y="160" width="410" height="8" as="geometry" />
        </mxCell>
        <mxCell id="bVRjCQ_B58bXz5kEhXcc-7" value="+&amp;nbsp;AAbstractEnemy&lt;div&gt;+&amp;nbsp;AttackThis(damage: int64)&lt;/div&gt;&lt;div&gt;&lt;div&gt;# BeginPlay(): void&lt;br&gt;&lt;/div&gt;&lt;/div&gt;&lt;div&gt;+&amp;nbsp;DistanceToNextNode(): double&lt;/div&gt;&lt;div&gt;# EndPlay(&lt;b&gt;EndPlayReason:&amp;nbsp;&lt;/b&gt;&lt;span style=&quot;background-color: initial;&quot;&gt;&lt;b&gt;EEndPlayReason::Type&lt;/b&gt;&lt;/span&gt;&lt;span style=&quot;background-color: initial;&quot;&gt;):&amp;nbsp;&lt;/span&gt;&lt;span style=&quot;background-color: initial;&quot;&gt;void&lt;/span&gt;&lt;span style=&quot;background-color: initial;&quot;&gt;&amp;nbsp;&lt;/span&gt;&lt;/div&gt;&lt;div&gt;+&amp;nbsp;GetQueueIndex(): int64&lt;/div&gt;&lt;div&gt;+&amp;nbsp;MoveToNextNode(DeltaTime: float): void&lt;/div&gt;&lt;div&gt;+&amp;nbsp;operator&amp;lt;(other:&amp;nbsp;AAbstractEnemy&amp;amp;): bool&lt;/div&gt;&lt;div&gt;+&amp;nbsp;RemoveThis(): void&lt;/div&gt;&lt;div&gt;+&amp;nbsp;SetPathQueue(PathQueue:&amp;nbsp;TDeque&amp;lt;TObjectPtr&amp;lt;AGraphNode&amp;gt;&amp;gt;): void&lt;/div&gt;&lt;div&gt;+&amp;nbsp;Spawn(): void&lt;/div&gt;&lt;div&gt;+&amp;nbsp;TeleportGlobal(newLocation: FVector): void&lt;/div&gt;&lt;div&gt;+&amp;nbsp;Tick(float): void&lt;br&gt;&lt;/div&gt;" style="text;strokeColor=none;fillColor=none;align=left;verticalAlign=top;spacingLeft=4;spacingRight=4;overflow=hidden;rotatable=0;points=[[0,0.5],[1,0.5]];portConstraint=eastwest;whiteSpace=wrap;html=1;" parent="bVRjCQ_B58bXz5kEhXcc-4" vertex="1">
          <mxGeometry y="168" width="410" height="202" as="geometry" />
        </mxCell>
        <mxCell id="Or8rvx1L4nkpCHTU0M23-8" style="edgeStyle=orthogonalEdgeStyle;rounded=0;orthogonalLoop=1;jettySize=auto;html=1;startSize=12;endSize=12;strokeWidth=2;endArrow=block;endFill=0;" parent="WIyWlLk6GJQsqaUBKTNV-1" source="bVRjCQ_B58bXz5kEhXcc-8" target="Or8rvx1L4nkpCHTU0M23-4" edge="1">
          <mxGeometry relative="1" as="geometry">
            <Array as="points">
              <mxPoint x="1200" y="440" />
              <mxPoint x="1200" y="440" />
            </Array>
          </mxGeometry>
        </mxCell>
        <mxCell id="Or8rvx1L4nkpCHTU0M23-9" style="edgeStyle=orthogonalEdgeStyle;rounded=0;orthogonalLoop=1;jettySize=auto;html=1;endArrow=none;endFill=0;startArrow=diamondThin;startFill=1;endSize=12;strokeWidth=2;startSize=12;" parent="WIyWlLk6GJQsqaUBKTNV-1" source="bVRjCQ_B58bXz5kEhXcc-8" target="SfnSRMyv1gglNEUpqVPP-14" edge="1">
          <mxGeometry relative="1" as="geometry">
            <mxPoint x="1550" y="730" as="sourcePoint" />
            <mxPoint x="1380" y="500" as="targetPoint" />
            <Array as="points">
              <mxPoint x="1000" y="595" />
              <mxPoint x="1000" y="595" />
            </Array>
          </mxGeometry>
        </mxCell>
        <mxCell id="bVRjCQ_B58bXz5kEhXcc-8" value="ABuildingSlot" style="swimlane;fontStyle=1;align=center;verticalAlign=top;childLayout=stackLayout;horizontal=1;startSize=26;horizontalStack=0;resizeParent=1;resizeParentMax=0;resizeLast=0;collapsible=1;marginBottom=0;whiteSpace=wrap;html=1;" parent="WIyWlLk6GJQsqaUBKTNV-1" vertex="1">
          <mxGeometry x="1070" y="490" width="260" height="180" as="geometry" />
        </mxCell>
        <mxCell id="bVRjCQ_B58bXz5kEhXcc-9" value="- ChildTower: TObjectPtr&amp;lt;AAbstractTower&amp;gt;&lt;br&gt;&lt;div&gt;-&amp;nbsp;hasBuilding: bool&lt;br&gt;&lt;/div&gt;&lt;div&gt;+ TowerClass:&amp;nbsp;TSubclassOf&amp;lt;AAbstractTower&amp;gt;&lt;/div&gt;" style="text;strokeColor=none;fillColor=none;align=left;verticalAlign=top;spacingLeft=4;spacingRight=4;overflow=hidden;rotatable=0;points=[[0,0.5],[1,0.5]];portConstraint=eastwest;whiteSpace=wrap;html=1;" parent="bVRjCQ_B58bXz5kEhXcc-8" vertex="1">
          <mxGeometry y="26" width="260" height="54" as="geometry" />
        </mxCell>
        <mxCell id="bVRjCQ_B58bXz5kEhXcc-10" value="" style="line;strokeWidth=1;fillColor=none;align=left;verticalAlign=middle;spacingTop=-1;spacingLeft=3;spacingRight=3;rotatable=0;labelPosition=right;points=[];portConstraint=eastwest;strokeColor=inherit;" parent="bVRjCQ_B58bXz5kEhXcc-8" vertex="1">
          <mxGeometry y="80" width="260" height="8" as="geometry" />
        </mxCell>
        <mxCell id="bVRjCQ_B58bXz5kEhXcc-11" value="+ ABuildingSlot()&lt;div&gt;# BeginPlay(): void&lt;br&gt;&lt;/div&gt;&lt;div&gt;+ Build(): void&lt;/div&gt;&lt;div&gt;+&amp;nbsp;CanBuild(): void&lt;/div&gt;&lt;div&gt;+&amp;nbsp;Tick(float): void&lt;span style=&quot;background-color: initial;&quot;&gt;&lt;br&gt;&lt;/span&gt;&lt;/div&gt;" style="text;strokeColor=none;fillColor=none;align=left;verticalAlign=top;spacingLeft=4;spacingRight=4;overflow=hidden;rotatable=0;points=[[0,0.5],[1,0.5]];portConstraint=eastwest;whiteSpace=wrap;html=1;" parent="bVRjCQ_B58bXz5kEhXcc-8" vertex="1">
          <mxGeometry y="88" width="260" height="92" as="geometry" />
        </mxCell>
        <mxCell id="bVRjCQ_B58bXz5kEhXcc-16" style="edgeStyle=orthogonalEdgeStyle;shape=connector;rounded=0;orthogonalLoop=1;jettySize=auto;html=1;strokeColor=default;strokeWidth=2;align=center;verticalAlign=middle;fontFamily=Helvetica;fontSize=11;fontColor=default;labelBackgroundColor=default;startArrow=diamondThin;startFill=0;startSize=12;endArrow=none;endFill=0;endSize=12;" parent="WIyWlLk6GJQsqaUBKTNV-1" source="bVRjCQ_B58bXz5kEhXcc-5" target="Or8rvx1L4nkpCHTU0M23-4" edge="1">
          <mxGeometry relative="1" as="geometry">
            <Array as="points">
              <mxPoint x="700" y="390" />
              <mxPoint x="700" y="390" />
            </Array>
          </mxGeometry>
        </mxCell>
        <mxCell id="abqN74poVczzxeBeDxSv-4" value="TDPlayerController" style="swimlane;fontStyle=1;align=center;verticalAlign=top;childLayout=stackLayout;horizontal=1;startSize=26;horizontalStack=0;resizeParent=1;resizeParentMax=0;resizeLast=0;collapsible=1;marginBottom=0;whiteSpace=wrap;html=1;" parent="WIyWlLk6GJQsqaUBKTNV-1" vertex="1">
          <mxGeometry x="-490" y="-270" width="480" height="300" as="geometry" />
        </mxCell>
        <mxCell id="abqN74poVczzxeBeDxSv-5" value="- HPCurrent: int64&lt;div&gt;&lt;span style=&quot;background-color: initial;&quot;&gt;- HPMax: int64&lt;/span&gt;&lt;div&gt;- WaveManager: TObjectPtr&amp;lt;AAbstractWaveManager&amp;gt;&lt;/div&gt;&lt;/div&gt;" style="text;strokeColor=none;fillColor=none;align=left;verticalAlign=top;spacingLeft=4;spacingRight=4;overflow=hidden;rotatable=0;points=[[0,0.5],[1,0.5]];portConstraint=eastwest;whiteSpace=wrap;html=1;" parent="abqN74poVczzxeBeDxSv-4" vertex="1">
          <mxGeometry y="26" width="480" height="54" as="geometry" />
        </mxCell>
        <mxCell id="abqN74poVczzxeBeDxSv-6" value="" style="line;strokeWidth=1;fillColor=none;align=left;verticalAlign=middle;spacingTop=-1;spacingLeft=3;spacingRight=3;rotatable=0;labelPosition=right;points=[];portConstraint=eastwest;strokeColor=inherit;" parent="abqN74poVczzxeBeDxSv-4" vertex="1">
          <mxGeometry y="80" width="480" height="8" as="geometry" />
        </mxCell>
        <mxCell id="abqN74poVczzxeBeDxSv-7" value="+ AddDeadEnemy(enemy: TObjectPtr&amp;lt;AAbstractEnemy&amp;gt;): void&lt;div&gt;+ ATDPlayerController()&lt;/div&gt;&lt;div&gt;+ GameEnded(): void&lt;/div&gt;&lt;div&gt;+&amp;nbsp;&lt;b&gt;GetHPCurrent(): int64&lt;/b&gt;&lt;/div&gt;&lt;div&gt;+&amp;nbsp;&lt;b style=&quot;background-color: initial;&quot;&gt;GetHPMax(): int64&lt;/b&gt;&lt;/div&gt;&lt;div&gt;+ &lt;b&gt;GetIsWaveActive(): bool&lt;/b&gt;&lt;/div&gt;&lt;div&gt;+ &lt;b&gt;HasWaveManager(): bool&lt;/b&gt;&lt;/div&gt;&lt;div&gt;+ LoseGame(): void&lt;/div&gt;&lt;div&gt;+ LoseHealth(DamageTaken: int64): void&lt;/div&gt;&lt;div&gt;+ Reset(): void&lt;/div&gt;&lt;div&gt;+ SetMaxHP(newMaxHP: int64): void&lt;/div&gt;&lt;div&gt;+ SetWaveManager(newWaveManager:&amp;nbsp;AAbstractWaveManager*): void&lt;/div&gt;&lt;div&gt;+ StartWave(): void&lt;/div&gt;&lt;div&gt;+&amp;nbsp;WaveEnded(): void&lt;/div&gt;" style="text;strokeColor=none;fillColor=none;align=left;verticalAlign=top;spacingLeft=4;spacingRight=4;overflow=hidden;rotatable=0;points=[[0,0.5],[1,0.5]];portConstraint=eastwest;whiteSpace=wrap;html=1;" parent="abqN74poVczzxeBeDxSv-4" vertex="1">
          <mxGeometry y="88" width="480" height="212" as="geometry" />
        </mxCell>
        <mxCell id="abqN74poVczzxeBeDxSv-8" style="edgeStyle=orthogonalEdgeStyle;rounded=0;orthogonalLoop=1;jettySize=auto;html=1;startArrow=open;startFill=0;endArrow=open;endFill=0;endSize=12;startSize=12;strokeWidth=2;" parent="WIyWlLk6GJQsqaUBKTNV-1" source="abqN74poVczzxeBeDxSv-4" target="bVRjCQ_B58bXz5kEhXcc-0" edge="1">
          <mxGeometry relative="1" as="geometry">
            <Array as="points">
              <mxPoint x="90" y="-120" />
              <mxPoint x="90" y="-120" />
            </Array>
          </mxGeometry>
        </mxCell>
        <mxCell id="ktp8bwMWxdayU_RDx3ty-18" style="edgeStyle=orthogonalEdgeStyle;rounded=0;orthogonalLoop=1;jettySize=auto;html=1;strokeWidth=2;endSize=12;startSize=12;endArrow=none;endFill=0;startArrow=diamondThin;startFill=0;" edge="1" parent="WIyWlLk6GJQsqaUBKTNV-1" source="vy7B8YMwYVHvc0k1j3HZ-1" target="Or8rvx1L4nkpCHTU0M23-4">
          <mxGeometry relative="1" as="geometry">
            <Array as="points">
              <mxPoint x="885" y="130" />
              <mxPoint x="885" y="130" />
            </Array>
          </mxGeometry>
        </mxCell>
        <mxCell id="vy7B8YMwYVHvc0k1j3HZ-1" value="&lt;div&gt;&lt;span style=&quot;font-weight: 400;&quot;&gt;&amp;lt;&amp;lt;Deprecated&amp;gt;&amp;gt;&lt;/span&gt;&lt;/div&gt;SearchNode" style="swimlane;fontStyle=1;align=center;verticalAlign=top;childLayout=stackLayout;horizontal=1;startSize=40;horizontalStack=0;resizeParent=1;resizeParentMax=0;resizeLast=0;collapsible=1;marginBottom=0;whiteSpace=wrap;html=1;" parent="WIyWlLk6GJQsqaUBKTNV-1" vertex="1">
          <mxGeometry x="620" y="-413" width="530" height="334" as="geometry">
            <mxRectangle x="-1090" y="190" width="130" height="40" as="alternateBounds" />
          </mxGeometry>
        </mxCell>
        <mxCell id="vy7B8YMwYVHvc0k1j3HZ-2" value="&lt;div&gt;&lt;span style=&quot;background-color: initial;&quot;&gt;- Cost: float&lt;/span&gt;&lt;/div&gt;- Heuristic: float&lt;div&gt;- Identity: int64&lt;br&gt;&lt;div&gt;- State: TObjectPtr&amp;lt;AGraphNode&amp;gt;&lt;div&gt;- Parent: TObjectPtr&amp;lt;SearchNode&amp;gt;&lt;/div&gt;&lt;/div&gt;&lt;/div&gt;" style="text;strokeColor=none;fillColor=none;align=left;verticalAlign=top;spacingLeft=4;spacingRight=4;overflow=hidden;rotatable=0;points=[[0,0.5],[1,0.5]];portConstraint=eastwest;whiteSpace=wrap;html=1;" parent="vy7B8YMwYVHvc0k1j3HZ-1" vertex="1">
          <mxGeometry y="40" width="530" height="84" as="geometry" />
        </mxCell>
        <mxCell id="vy7B8YMwYVHvc0k1j3HZ-3" value="" style="line;strokeWidth=1;fillColor=none;align=left;verticalAlign=middle;spacingTop=-1;spacingLeft=3;spacingRight=3;rotatable=0;labelPosition=right;points=[];portConstraint=eastwest;strokeColor=inherit;" parent="vy7B8YMwYVHvc0k1j3HZ-1" vertex="1">
          <mxGeometry y="124" width="530" height="8" as="geometry" />
        </mxCell>
        <mxCell id="vy7B8YMwYVHvc0k1j3HZ-4" value="&lt;div&gt;+ &lt;b&gt;GetCost()&lt;/b&gt;: float&lt;/div&gt;&lt;div&gt;+ &lt;b&gt;GetExpectedCost&lt;/b&gt;(): float&lt;/div&gt;&lt;div&gt;+ &lt;b&gt;GetParent&lt;/b&gt;(): TObjectPtr&amp;lt;SearchNode&amp;gt;&lt;/div&gt;&lt;div&gt;+ GetPath():&amp;nbsp;TDeque&amp;lt;TObjectPtr&amp;lt;AGraphNode&amp;gt;&amp;gt;&lt;/div&gt;&lt;div&gt;+ &lt;b&gt;GetState&lt;/b&gt;():&amp;nbsp;&lt;span style=&quot;background-color: initial;&quot;&gt;TObjectPtr&amp;lt;AGraphNode&amp;gt;&lt;/span&gt;&lt;/div&gt;&lt;div&gt;&lt;span style=&quot;background-color: initial;&quot;&gt;- MakePath(&amp;amp;path:&amp;nbsp;&lt;/span&gt;&lt;span style=&quot;background-color: initial;&quot;&gt;TDeque&amp;lt;TObjectPtr&amp;lt;AGraphNode&amp;gt;&amp;gt;&lt;/span&gt;&lt;span style=&quot;background-color: initial;&quot;&gt;): void&lt;/span&gt;&lt;/div&gt;&lt;div&gt;+ &lt;b&gt;operator&amp;lt;&lt;/b&gt;(&lt;b&gt;other&lt;/b&gt;: SearchNode&amp;amp;): bool&lt;/div&gt;&lt;div&gt;+&amp;nbsp;&lt;b&gt;operator==&lt;/b&gt;(&lt;b&gt;other&lt;/b&gt;: SearchNode&amp;amp;): bool&lt;/div&gt;&lt;div&gt;+&amp;nbsp;&lt;b&gt;operator&amp;gt;&lt;/b&gt;(&lt;b&gt;other&lt;/b&gt;: SearchNode&amp;amp;): bool&lt;/div&gt;&lt;div&gt;+ SetEndNode(&lt;span style=&quot;background-color: initial;&quot;&gt;endNode: TObjectPtr&amp;lt;AGraphNode&amp;gt;)&lt;/span&gt;&lt;/div&gt;&lt;div&gt;+ SearchNode(state: TObjectPtr&amp;lt;AGraphNode&amp;gt;, ID: int64)&lt;span style=&quot;background-color: initial;&quot;&gt;&lt;/span&gt;&lt;/div&gt;&lt;div&gt;+ SearchNode(state: TObjectPtr&amp;lt;AGraphNode&amp;gt;, endNode: TObjectPtr&amp;lt;AGraphNode&amp;gt;, ID: int64)&lt;/div&gt;&lt;div&gt;+ SetEndNode(state: TObjectPtr&amp;lt;AGraphNode&amp;gt;)&lt;/div&gt;" style="text;strokeColor=none;fillColor=none;align=left;verticalAlign=top;spacingLeft=4;spacingRight=4;overflow=hidden;rotatable=0;points=[[0,0.5],[1,0.5]];portConstraint=eastwest;whiteSpace=wrap;html=1;" parent="vy7B8YMwYVHvc0k1j3HZ-1" vertex="1">
          <mxGeometry y="132" width="530" height="202" as="geometry" />
        </mxCell>
        <mxCell id="ktp8bwMWxdayU_RDx3ty-23" style="edgeStyle=orthogonalEdgeStyle;rounded=0;orthogonalLoop=1;jettySize=auto;html=1;endArrow=block;endFill=0;endSize=12;strokeWidth=2;startSize=12;" edge="1" parent="WIyWlLk6GJQsqaUBKTNV-1" source="SfnSRMyv1gglNEUpqVPP-2" target="bVRjCQ_B58bXz5kEhXcc-4">
          <mxGeometry relative="1" as="geometry">
            <Array as="points">
              <mxPoint x="110" y="820" />
              <mxPoint x="110" y="820" />
            </Array>
          </mxGeometry>
        </mxCell>
        <mxCell id="SfnSRMyv1gglNEUpqVPP-2" value="ARunnerEnemy" style="swimlane;fontStyle=1;align=center;verticalAlign=top;childLayout=stackLayout;horizontal=1;startSize=26;horizontalStack=0;resizeParent=1;resizeParentMax=0;resizeLast=0;collapsible=1;marginBottom=0;whiteSpace=wrap;html=1;" parent="WIyWlLk6GJQsqaUBKTNV-1" vertex="1">
          <mxGeometry x="-130" y="833" width="340" height="110" as="geometry" />
        </mxCell>
        <mxCell id="SfnSRMyv1gglNEUpqVPP-4" value="" style="line;strokeWidth=1;fillColor=none;align=left;verticalAlign=middle;spacingTop=-1;spacingLeft=3;spacingRight=3;rotatable=0;labelPosition=right;points=[];portConstraint=eastwest;strokeColor=inherit;" parent="SfnSRMyv1gglNEUpqVPP-2" vertex="1">
          <mxGeometry y="26" width="340" height="14" as="geometry" />
        </mxCell>
        <mxCell id="SfnSRMyv1gglNEUpqVPP-5" value="&lt;div&gt;+ ABigEnemy()&lt;div&gt;# BeginPlay(): void&lt;br&gt;&lt;div&gt;# EndPlay(&lt;b&gt;EndPlayReason:&amp;nbsp;&lt;/b&gt;&lt;span style=&quot;background-color: initial;&quot;&gt;&lt;b&gt;EEndPlayReason::Type&lt;/b&gt;&lt;/span&gt;&lt;span style=&quot;background-color: initial;&quot;&gt;):&amp;nbsp;&lt;/span&gt;&lt;span style=&quot;background-color: initial;&quot;&gt;void&lt;/span&gt;&lt;span style=&quot;background-color: initial;&quot;&gt;&amp;nbsp;&lt;/span&gt;&lt;/div&gt;&lt;/div&gt;&lt;div&gt;+&amp;nbsp;Tick(float): void&lt;/div&gt;&lt;/div&gt;" style="text;strokeColor=none;fillColor=none;align=left;verticalAlign=top;spacingLeft=4;spacingRight=4;overflow=hidden;rotatable=0;points=[[0,0.5],[1,0.5]];portConstraint=eastwest;whiteSpace=wrap;html=1;" parent="SfnSRMyv1gglNEUpqVPP-2" vertex="1">
          <mxGeometry y="40" width="340" height="70" as="geometry" />
        </mxCell>
        <mxCell id="ktp8bwMWxdayU_RDx3ty-25" style="edgeStyle=orthogonalEdgeStyle;rounded=0;orthogonalLoop=1;jettySize=auto;html=1;endSize=12;startSize=12;strokeWidth=2;endArrow=open;endFill=0;dashed=1;" edge="1" parent="WIyWlLk6GJQsqaUBKTNV-1" source="SfnSRMyv1gglNEUpqVPP-14" target="bVRjCQ_B58bXz5kEhXcc-4">
          <mxGeometry relative="1" as="geometry">
            <Array as="points">
              <mxPoint x="470" y="605" />
              <mxPoint x="470" y="605" />
            </Array>
          </mxGeometry>
        </mxCell>
        <mxCell id="ktp8bwMWxdayU_RDx3ty-26" value="&amp;lt;&amp;lt;use&amp;gt;&amp;gt;" style="edgeLabel;html=1;align=center;verticalAlign=middle;resizable=0;points=[];" vertex="1" connectable="0" parent="ktp8bwMWxdayU_RDx3ty-25">
          <mxGeometry x="0.055" relative="1" as="geometry">
            <mxPoint as="offset" />
          </mxGeometry>
        </mxCell>
        <mxCell id="SfnSRMyv1gglNEUpqVPP-14" value="AAbstractTower" style="swimlane;fontStyle=1;align=center;verticalAlign=top;childLayout=stackLayout;horizontal=1;startSize=26;horizontalStack=0;resizeParent=1;resizeParentMax=0;resizeLast=0;collapsible=1;marginBottom=0;whiteSpace=wrap;html=1;" parent="WIyWlLk6GJQsqaUBKTNV-1" vertex="1">
          <mxGeometry x="580" y="460" width="410" height="290" as="geometry" />
        </mxCell>
        <mxCell id="SfnSRMyv1gglNEUpqVPP-15" value="+ AttackDamage : int64&lt;div&gt;+ AttackRange : USphereComponent*&lt;/div&gt;&lt;div&gt;+ AttackSpeed : float&lt;/div&gt;&lt;div&gt;+ AttackTimer : float&lt;/div&gt;+ EnemiesList : TDeque&amp;lt;AAbstractEnemy*&amp;gt;&lt;div&gt;+ ThreatLevel : int64&lt;/div&gt;&lt;div&gt;+ TowerMesh: UStaticMeshComponent*&lt;/div&gt;" style="text;strokeColor=none;fillColor=none;align=left;verticalAlign=top;spacingLeft=4;spacingRight=4;overflow=hidden;rotatable=0;points=[[0,0.5],[1,0.5]];portConstraint=eastwest;whiteSpace=wrap;html=1;" parent="SfnSRMyv1gglNEUpqVPP-14" vertex="1">
          <mxGeometry y="26" width="410" height="114" as="geometry" />
        </mxCell>
        <mxCell id="SfnSRMyv1gglNEUpqVPP-16" value="" style="line;strokeWidth=1;fillColor=none;align=left;verticalAlign=middle;spacingTop=-1;spacingLeft=3;spacingRight=3;rotatable=0;labelPosition=right;points=[];portConstraint=eastwest;strokeColor=inherit;" parent="SfnSRMyv1gglNEUpqVPP-14" vertex="1">
          <mxGeometry y="140" width="410" height="8" as="geometry" />
        </mxCell>
        <mxCell id="SfnSRMyv1gglNEUpqVPP-17" value="&lt;div&gt;+ AAbstractTower()&lt;/div&gt;&lt;div&gt;# BeginPlay() : void&lt;/div&gt;&lt;div&gt;# EndPlay : void&lt;/div&gt;+ &lt;b&gt;GetThreatLevel() : int64&lt;/b&gt;&lt;div&gt;# OnBeginOverlap(OverlappedComponent :UPrimitiveComponent*) : void&lt;/div&gt;&lt;div&gt;# OnEndOverlap(OverlappedComp : UPrimitiveComponent*) : void&lt;/div&gt;&lt;div&gt;&lt;span style=&quot;background-color: initial;&quot;&gt;+ Tick(DeltaTime : float) : void&lt;/span&gt;&lt;/div&gt;&lt;div&gt;# TowerAttack(DeltaTime : float) : bool&lt;/div&gt;" style="text;strokeColor=none;fillColor=none;align=left;verticalAlign=top;spacingLeft=4;spacingRight=4;overflow=hidden;rotatable=0;points=[[0,0.5],[1,0.5]];portConstraint=eastwest;whiteSpace=wrap;html=1;" parent="SfnSRMyv1gglNEUpqVPP-14" vertex="1">
          <mxGeometry y="148" width="410" height="142" as="geometry" />
        </mxCell>
        <mxCell id="ktp8bwMWxdayU_RDx3ty-22" style="edgeStyle=orthogonalEdgeStyle;rounded=0;orthogonalLoop=1;jettySize=auto;html=1;endArrow=block;endFill=0;endSize=12;startSize=12;strokeWidth=2;" edge="1" parent="WIyWlLk6GJQsqaUBKTNV-1" source="Or8rvx1L4nkpCHTU0M23-0" target="bVRjCQ_B58bXz5kEhXcc-4">
          <mxGeometry relative="1" as="geometry">
            <Array as="points">
              <mxPoint x="310" y="790" />
              <mxPoint x="310" y="790" />
            </Array>
          </mxGeometry>
        </mxCell>
        <mxCell id="Or8rvx1L4nkpCHTU0M23-0" value="ARunnerEnemy" style="swimlane;fontStyle=1;align=center;verticalAlign=top;childLayout=stackLayout;horizontal=1;startSize=26;horizontalStack=0;resizeParent=1;resizeParentMax=0;resizeLast=0;collapsible=1;marginBottom=0;whiteSpace=wrap;html=1;" parent="WIyWlLk6GJQsqaUBKTNV-1" vertex="1">
          <mxGeometry x="250" y="833" width="340" height="100" as="geometry" />
        </mxCell>
        <mxCell id="Or8rvx1L4nkpCHTU0M23-2" value="" style="line;strokeWidth=1;fillColor=none;align=left;verticalAlign=middle;spacingTop=-1;spacingLeft=3;spacingRight=3;rotatable=0;labelPosition=right;points=[];portConstraint=eastwest;strokeColor=inherit;" parent="Or8rvx1L4nkpCHTU0M23-0" vertex="1">
          <mxGeometry y="26" width="340" height="8" as="geometry" />
        </mxCell>
        <mxCell id="Or8rvx1L4nkpCHTU0M23-3" value="+ ABigEnemy()&lt;div&gt;# BeginPlay(): void&lt;br&gt;&lt;div&gt;# EndPlay(&lt;b&gt;EndPlayReason:&amp;nbsp;&lt;/b&gt;&lt;span style=&quot;background-color: initial;&quot;&gt;&lt;b&gt;EEndPlayReason::Type&lt;/b&gt;&lt;/span&gt;&lt;span style=&quot;background-color: initial;&quot;&gt;):&amp;nbsp;&lt;/span&gt;&lt;span style=&quot;background-color: initial;&quot;&gt;void&lt;/span&gt;&lt;span style=&quot;background-color: initial;&quot;&gt;&amp;nbsp;&lt;/span&gt;&lt;/div&gt;&lt;/div&gt;&lt;div&gt;+&amp;nbsp;Tick(float): void&lt;span style=&quot;background-color: initial;&quot;&gt;&lt;/span&gt;&lt;/div&gt;" style="text;strokeColor=none;fillColor=none;align=left;verticalAlign=top;spacingLeft=4;spacingRight=4;overflow=hidden;rotatable=0;points=[[0,0.5],[1,0.5]];portConstraint=eastwest;whiteSpace=wrap;html=1;" parent="Or8rvx1L4nkpCHTU0M23-0" vertex="1">
          <mxGeometry y="34" width="340" height="66" as="geometry" />
        </mxCell>
        <mxCell id="Or8rvx1L4nkpCHTU0M23-4" value="AGraphNode" style="swimlane;fontStyle=1;align=center;verticalAlign=top;childLayout=stackLayout;horizontal=1;startSize=26;horizontalStack=0;resizeParent=1;resizeParentMax=0;resizeLast=0;collapsible=1;marginBottom=0;whiteSpace=wrap;html=1;" parent="WIyWlLk6GJQsqaUBKTNV-1" vertex="1">
          <mxGeometry x="790" y="194" width="560" height="220" as="geometry" />
        </mxCell>
        <mxCell id="Or8rvx1L4nkpCHTU0M23-5" value="- AdjacentMap: TMap&amp;lt;TObjectPtr&amp;lt;ABuildingSlot&amp;gt;, TObjectPtr&amp;lt;ABuildingSlot&amp;gt;&amp;gt;&lt;div&gt;-&amp;nbsp;ArrayOfAdjacencyMap:&amp;nbsp;TArray&amp;lt;ABuildingSlot*&amp;gt;&lt;/div&gt;&lt;div&gt;# ThreatLevel: double&lt;/div&gt;" style="text;strokeColor=none;fillColor=none;align=left;verticalAlign=top;spacingLeft=4;spacingRight=4;overflow=hidden;rotatable=0;points=[[0,0.5],[1,0.5]];portConstraint=eastwest;whiteSpace=wrap;html=1;" parent="Or8rvx1L4nkpCHTU0M23-4" vertex="1">
          <mxGeometry y="26" width="560" height="64" as="geometry" />
        </mxCell>
        <mxCell id="Or8rvx1L4nkpCHTU0M23-6" value="" style="line;strokeWidth=1;fillColor=none;align=left;verticalAlign=middle;spacingTop=-1;spacingLeft=3;spacingRight=3;rotatable=0;labelPosition=right;points=[];portConstraint=eastwest;strokeColor=inherit;" parent="Or8rvx1L4nkpCHTU0M23-4" vertex="1">
          <mxGeometry y="90" width="560" height="8" as="geometry" />
        </mxCell>
        <mxCell id="Or8rvx1L4nkpCHTU0M23-7" value="&lt;div&gt;+&amp;nbsp;AddAdjacent(otherBuildingSlot:&amp;nbsp;AGraphNode*): void&lt;/div&gt;&lt;div&gt;+ AGraphNode()&lt;/div&gt;&lt;div&gt;# BeginPlay(): void&lt;/div&gt;&lt;div&gt;&lt;div&gt;+&amp;nbsp;GetAdjacent():&amp;nbsp;TArray&amp;lt;AGraphNode*&amp;gt;&lt;/div&gt;&lt;div&gt;+&amp;nbsp;GetValue(&lt;span style=&quot;background-color: initial;&quot;&gt;endNode:&amp;nbsp;&lt;/span&gt;&lt;span style=&quot;background-color: initial;&quot;&gt;ABuildingSlot*): double&lt;/span&gt;&lt;/div&gt;&lt;div&gt;&lt;span style=&quot;background-color: initial;&quot;&gt;+&amp;nbsp;&lt;/span&gt;&lt;span style=&quot;background-color: initial;&quot;&gt;isAdjacent(&lt;/span&gt;&lt;span style=&quot;background-color: initial;&quot;&gt;otherBuildingSlot:&amp;nbsp;&lt;/span&gt;&lt;span style=&quot;background-color: initial;&quot;&gt;ABuildingSlot*): bool&lt;/span&gt;&lt;/div&gt;&lt;div&gt;+&amp;nbsp;Tick(float): void&lt;/div&gt;&lt;/div&gt;" style="text;strokeColor=none;fillColor=none;align=left;verticalAlign=top;spacingLeft=4;spacingRight=4;overflow=hidden;rotatable=0;points=[[0,0.5],[1,0.5]];portConstraint=eastwest;whiteSpace=wrap;html=1;" parent="Or8rvx1L4nkpCHTU0M23-4" vertex="1">
          <mxGeometry y="98" width="560" height="122" as="geometry" />
        </mxCell>
        <mxCell id="oYd0NgwK_6_6nimxyRu1-7" style="edgeStyle=orthogonalEdgeStyle;rounded=0;orthogonalLoop=1;jettySize=auto;html=1;dashed=1;endArrow=open;endFill=0;endSize=12;startSize=12;strokeWidth=2;" parent="WIyWlLk6GJQsqaUBKTNV-1" source="oYd0NgwK_6_6nimxyRu1-3" target="bVRjCQ_B58bXz5kEhXcc-8" edge="1">
          <mxGeometry relative="1" as="geometry" />
        </mxCell>
        <mxCell id="oYd0NgwK_6_6nimxyRu1-8" value="&amp;lt;&amp;lt;use&amp;gt;&amp;gt;" style="edgeLabel;html=1;align=center;verticalAlign=middle;resizable=0;points=[];" parent="oYd0NgwK_6_6nimxyRu1-7" vertex="1" connectable="0">
          <mxGeometry x="-0.0538" y="1" relative="1" as="geometry">
            <mxPoint x="1" as="offset" />
          </mxGeometry>
        </mxCell>
        <mxCell id="ktp8bwMWxdayU_RDx3ty-24" style="edgeStyle=orthogonalEdgeStyle;rounded=0;orthogonalLoop=1;jettySize=auto;html=1;endArrow=open;endFill=0;startArrow=open;startFill=0;strokeWidth=2;endSize=12;startSize=12;" edge="1" parent="WIyWlLk6GJQsqaUBKTNV-1" source="oYd0NgwK_6_6nimxyRu1-3" target="abqN74poVczzxeBeDxSv-4">
          <mxGeometry relative="1" as="geometry">
            <Array as="points">
              <mxPoint x="-395" y="250" />
              <mxPoint x="-395" y="250" />
            </Array>
          </mxGeometry>
        </mxCell>
        <mxCell id="oYd0NgwK_6_6nimxyRu1-3" value="ATDPlayerCharacter" style="swimlane;fontStyle=1;align=center;verticalAlign=top;childLayout=stackLayout;horizontal=1;startSize=26;horizontalStack=0;resizeParent=1;resizeParentMax=0;resizeLast=0;collapsible=1;marginBottom=0;whiteSpace=wrap;html=1;" parent="WIyWlLk6GJQsqaUBKTNV-1" vertex="1">
          <mxGeometry x="-620" y="850" width="450" height="286" as="geometry" />
        </mxCell>
        <mxCell id="oYd0NgwK_6_6nimxyRu1-4" value="&lt;div&gt;&lt;span style=&quot;background-color: initial;&quot;&gt;+ BuildableTowers: int64&lt;/span&gt;&lt;/div&gt;&lt;div&gt;&lt;span style=&quot;background-color: initial;&quot;&gt;- BuildableTowersPerWave: int64&lt;/span&gt;&lt;/div&gt;&lt;div&gt;&lt;span style=&quot;background-color: initial;&quot;&gt;+ CameraSpringArm: USpringArmComponent*&lt;/span&gt;&lt;/div&gt;&lt;div&gt;&lt;span style=&quot;background-color: initial;&quot;&gt;+ Character&lt;/span&gt;&lt;span style=&quot;background-color: initial;&quot;&gt;Mesh:&amp;nbsp;&lt;/span&gt;&lt;span style=&quot;background-color: initial;&quot;&gt;USkeletalMeshComponent*&lt;/span&gt;&lt;span style=&quot;background-color: initial;&quot;&gt;&lt;/span&gt;&lt;span style=&quot;background-color: initial;&quot;&gt;&amp;nbsp;&lt;/span&gt;&lt;/div&gt;&lt;div&gt;&lt;span style=&quot;background-color: initial;&quot;&gt;+&amp;nbsp;&lt;/span&gt;&lt;span style=&quot;background-color: initial;&quot;&gt;InputMappingContext:&amp;nbsp;&lt;/span&gt;&lt;span style=&quot;background-color: initial;&quot;&gt;UInputMappingContext*&lt;/span&gt;&lt;/div&gt;&lt;div&gt;+ Isometric&lt;span style=&quot;background-color: initial;&quot;&gt;CameraComponent:&amp;nbsp;&lt;/span&gt;&lt;span style=&quot;background-color: initial;&quot;&gt;UCameraComponent*&lt;/span&gt;&lt;/div&gt;&lt;div&gt;&lt;span style=&quot;background-color: initial;&quot;&gt;+&amp;nbsp;&lt;/span&gt;&lt;span style=&quot;background-color: initial;&quot;&gt;MoveAction:&amp;nbsp;&lt;/span&gt;&lt;span style=&quot;background-color: initial;&quot;&gt;UInputAction*&amp;nbsp;&lt;/span&gt;&lt;/div&gt;&lt;div&gt;&lt;span style=&quot;background-color: initial;&quot;&gt;+&amp;nbsp;&lt;/span&gt;&lt;span style=&quot;background-color: initial;&quot;&gt;TargetAction:&amp;nbsp;&lt;/span&gt;&lt;span style=&quot;background-color: initial;&quot;&gt;UInputAction*&lt;/span&gt;&lt;/div&gt;" style="text;strokeColor=none;fillColor=none;align=left;verticalAlign=top;spacingLeft=4;spacingRight=4;overflow=hidden;rotatable=0;points=[[0,0.5],[1,0.5]];portConstraint=eastwest;whiteSpace=wrap;html=1;" parent="oYd0NgwK_6_6nimxyRu1-3" vertex="1">
          <mxGeometry y="26" width="450" height="130" as="geometry" />
        </mxCell>
        <mxCell id="oYd0NgwK_6_6nimxyRu1-5" value="" style="line;strokeWidth=1;fillColor=none;align=left;verticalAlign=middle;spacingTop=-1;spacingLeft=3;spacingRight=3;rotatable=0;labelPosition=right;points=[];portConstraint=eastwest;strokeColor=inherit;" parent="oYd0NgwK_6_6nimxyRu1-3" vertex="1">
          <mxGeometry y="156" width="450" height="8" as="geometry" />
        </mxCell>
        <mxCell id="oYd0NgwK_6_6nimxyRu1-6" value="&lt;div&gt;+ AddBuildableTower(): void&lt;/div&gt;&lt;div&gt;+ ATDPlayerCharacter()&lt;/div&gt;&lt;div&gt;&lt;span style=&quot;background-color: initial;&quot;&gt;+ BeginPlay():&amp;nbsp;&lt;/span&gt;&lt;span style=&quot;background-color: initial;&quot;&gt;void&lt;/span&gt;&lt;span style=&quot;background-color: initial;&quot;&gt;&amp;nbsp;&lt;/span&gt;&lt;/div&gt;&lt;div style=&quot;font-weight: bold;&quot;&gt;+ Move(&lt;span style=&quot;background-color: initial;&quot;&gt;Value:&amp;nbsp;&lt;/span&gt;&lt;span style=&quot;background-color: initial;&quot;&gt;FInputActionValue&amp;amp;):&amp;nbsp;&lt;/span&gt;&lt;span style=&quot;background-color: initial;&quot;&gt;void&lt;/span&gt;&lt;/div&gt;&lt;div style=&quot;font-weight: bold;&quot;&gt;&lt;span style=&quot;background-color: initial; font-weight: normal;&quot;&gt;+ SetupPlayerInputComponent(PlayerInputComponent:&amp;nbsp;&lt;/span&gt;&lt;span style=&quot;background-color: initial; font-weight: normal;&quot;&gt;UInputComponent*&lt;/span&gt;&lt;span style=&quot;background-color: initial; font-weight: normal;&quot;&gt;):&amp;nbsp;&lt;/span&gt;&lt;span style=&quot;background-color: initial; font-weight: normal;&quot;&gt;void&lt;/span&gt;&lt;/div&gt;&lt;div style=&quot;font-weight: bold;&quot;&gt;&lt;span style=&quot;background-color: initial; font-weight: normal;&quot;&gt;+ Target():&amp;nbsp;&lt;/span&gt;&lt;span style=&quot;background-color: initial; font-weight: normal;&quot;&gt;void&lt;/span&gt;&lt;/div&gt;&lt;div style=&quot;font-weight: bold;&quot;&gt;&lt;span style=&quot;background-color: initial; font-weight: normal;&quot;&gt;+ Tick(DeltaTime: float):&amp;nbsp;&lt;/span&gt;&lt;span style=&quot;background-color: initial; font-weight: normal;&quot;&gt;void&lt;/span&gt;&lt;span style=&quot;background-color: initial; font-weight: normal;&quot;&gt;&amp;nbsp;&lt;/span&gt;&lt;/div&gt;" style="text;strokeColor=none;fillColor=none;align=left;verticalAlign=top;spacingLeft=4;spacingRight=4;overflow=hidden;rotatable=0;points=[[0,0.5],[1,0.5]];portConstraint=eastwest;whiteSpace=wrap;html=1;" parent="oYd0NgwK_6_6nimxyRu1-3" vertex="1">
          <mxGeometry y="164" width="450" height="122" as="geometry" />
        </mxCell>
        <mxCell id="ktp8bwMWxdayU_RDx3ty-9" style="edgeStyle=orthogonalEdgeStyle;rounded=0;orthogonalLoop=1;jettySize=auto;html=1;endSize=12;startSize=12;endArrow=open;endFill=0;dashed=1;strokeWidth=2;" edge="1" parent="WIyWlLk6GJQsqaUBKTNV-1" source="oYd0NgwK_6_6nimxyRu1-9" target="vy7B8YMwYVHvc0k1j3HZ-1">
          <mxGeometry relative="1" as="geometry">
            <Array as="points">
              <mxPoint x="885" y="-580" />
              <mxPoint x="885" y="-580" />
            </Array>
          </mxGeometry>
        </mxCell>
        <mxCell id="ktp8bwMWxdayU_RDx3ty-10" value="&amp;lt;&amp;lt;creates&amp;gt;&amp;gt;" style="edgeLabel;html=1;align=center;verticalAlign=middle;resizable=0;points=[];" vertex="1" connectable="0" parent="ktp8bwMWxdayU_RDx3ty-9">
          <mxGeometry x="0.0568" y="-5" relative="1" as="geometry">
            <mxPoint as="offset" />
          </mxGeometry>
        </mxCell>
        <mxCell id="ktp8bwMWxdayU_RDx3ty-20" style="edgeStyle=orthogonalEdgeStyle;rounded=0;orthogonalLoop=1;jettySize=auto;html=1;strokeWidth=2;endSize=12;startSize=12;endArrow=open;endFill=0;dashed=1;" edge="1" parent="WIyWlLk6GJQsqaUBKTNV-1" source="oYd0NgwK_6_6nimxyRu1-9" target="Or8rvx1L4nkpCHTU0M23-4">
          <mxGeometry relative="1" as="geometry">
            <Array as="points">
              <mxPoint x="1175" />
              <mxPoint x="1175" />
            </Array>
          </mxGeometry>
        </mxCell>
        <mxCell id="ktp8bwMWxdayU_RDx3ty-21" value="&amp;lt;&amp;lt;use&amp;gt;&amp;gt;" style="edgeLabel;html=1;align=center;verticalAlign=middle;resizable=0;points=[];" vertex="1" connectable="0" parent="ktp8bwMWxdayU_RDx3ty-20">
          <mxGeometry x="-0.727" y="4" relative="1" as="geometry">
            <mxPoint as="offset" />
          </mxGeometry>
        </mxCell>
        <mxCell id="oYd0NgwK_6_6nimxyRu1-9" value="AStar" style="swimlane;fontStyle=1;align=center;verticalAlign=top;childLayout=stackLayout;horizontal=1;startSize=26;horizontalStack=0;resizeParent=1;resizeParentMax=0;resizeLast=0;collapsible=1;marginBottom=0;whiteSpace=wrap;html=1;" parent="WIyWlLk6GJQsqaUBKTNV-1" vertex="1">
          <mxGeometry x="770" y="-670" width="810" height="80" as="geometry" />
        </mxCell>
        <mxCell id="oYd0NgwK_6_6nimxyRu1-11" value="" style="line;strokeWidth=1;fillColor=none;align=left;verticalAlign=middle;spacingTop=-1;spacingLeft=3;spacingRight=3;rotatable=0;labelPosition=right;points=[];portConstraint=eastwest;strokeColor=inherit;" parent="oYd0NgwK_6_6nimxyRu1-9" vertex="1">
          <mxGeometry y="26" width="810" height="8" as="geometry" />
        </mxCell>
        <mxCell id="oYd0NgwK_6_6nimxyRu1-12" value="+ &amp;lt;&amp;lt;Depracated&amp;gt;&amp;gt; &lt;b&gt;FindPath&lt;/b&gt;(startNode:&amp;nbsp;TObjectPtr&amp;lt;AGraphNode&amp;gt;, endNode:&amp;nbsp;TObjectPtr&amp;lt;AGraphNode&amp;gt;):&amp;nbsp;TDeque&amp;lt;TObjectPtr&amp;lt;AGraphNode&amp;gt;&amp;gt;&lt;div&gt;+ &lt;b&gt;FindPathMapImplementation&lt;/b&gt;(startNode:&amp;nbsp;TObjectPtr&amp;lt;AGraphNode&amp;gt;, endNode:&amp;nbsp;TObjectPtr&amp;lt;AGraphNode&amp;gt;):&amp;nbsp;TDeque&amp;lt;TObjectPtr&amp;lt;AGraphNode&amp;gt;&amp;gt;&lt;/div&gt;" style="text;strokeColor=none;fillColor=none;align=left;verticalAlign=top;spacingLeft=4;spacingRight=4;overflow=hidden;rotatable=0;points=[[0,0.5],[1,0.5]];portConstraint=eastwest;whiteSpace=wrap;html=1;" parent="oYd0NgwK_6_6nimxyRu1-9" vertex="1">
          <mxGeometry y="34" width="810" height="46" as="geometry" />
        </mxCell>
        <mxCell id="ktp8bwMWxdayU_RDx3ty-8" style="edgeStyle=orthogonalEdgeStyle;rounded=0;orthogonalLoop=1;jettySize=auto;html=1;strokeWidth=2;endSize=12;startSize=12;endArrow=block;endFill=0;" edge="1" parent="WIyWlLk6GJQsqaUBKTNV-1" source="ktp8bwMWxdayU_RDx3ty-0" target="bVRjCQ_B58bXz5kEhXcc-0">
          <mxGeometry relative="1" as="geometry">
            <Array as="points">
              <mxPoint x="280" y="-300" />
              <mxPoint x="280" y="-300" />
            </Array>
          </mxGeometry>
        </mxCell>
        <mxCell id="ktp8bwMWxdayU_RDx3ty-19" style="edgeStyle=orthogonalEdgeStyle;rounded=0;orthogonalLoop=1;jettySize=auto;html=1;startArrow=diamondThin;startFill=0;endArrow=none;endFill=0;strokeWidth=2;endSize=12;startSize=12;" edge="1" parent="WIyWlLk6GJQsqaUBKTNV-1" source="ktp8bwMWxdayU_RDx3ty-4" target="Or8rvx1L4nkpCHTU0M23-4">
          <mxGeometry relative="1" as="geometry">
            <Array as="points">
              <mxPoint x="1280" y="-70" />
              <mxPoint x="1280" y="-70" />
            </Array>
          </mxGeometry>
        </mxCell>
        <mxCell id="ktp8bwMWxdayU_RDx3ty-4" value="UValueNode" style="swimlane;fontStyle=1;align=center;verticalAlign=top;childLayout=stackLayout;horizontal=1;startSize=26;horizontalStack=0;resizeParent=1;resizeParentMax=0;resizeLast=0;collapsible=1;marginBottom=0;whiteSpace=wrap;html=1;" vertex="1" parent="WIyWlLk6GJQsqaUBKTNV-1">
          <mxGeometry x="1230" y="-413" width="530" height="230" as="geometry" />
        </mxCell>
        <mxCell id="ktp8bwMWxdayU_RDx3ty-5" value="- cost: float&lt;div&gt;- heuristic: float&lt;/div&gt;&lt;div&gt;- State: TObjectPtr&amp;lt;AGraphNode&amp;gt;&lt;/div&gt;" style="text;strokeColor=none;fillColor=none;align=left;verticalAlign=top;spacingLeft=4;spacingRight=4;overflow=hidden;rotatable=0;points=[[0,0.5],[1,0.5]];portConstraint=eastwest;whiteSpace=wrap;html=1;" vertex="1" parent="ktp8bwMWxdayU_RDx3ty-4">
          <mxGeometry y="26" width="530" height="54" as="geometry" />
        </mxCell>
        <mxCell id="ktp8bwMWxdayU_RDx3ty-6" value="" style="line;strokeWidth=1;fillColor=none;align=left;verticalAlign=middle;spacingTop=-1;spacingLeft=3;spacingRight=3;rotatable=0;labelPosition=right;points=[];portConstraint=eastwest;strokeColor=inherit;" vertex="1" parent="ktp8bwMWxdayU_RDx3ty-4">
          <mxGeometry y="80" width="530" height="8" as="geometry" />
        </mxCell>
        <mxCell id="ktp8bwMWxdayU_RDx3ty-7" value="&lt;div&gt;+&amp;nbsp;&lt;b&gt;GetCost()&lt;/b&gt;: float&lt;/div&gt;&lt;div&gt;+&amp;nbsp;&lt;b&gt;GetHeuristic&lt;/b&gt;(): float&lt;/div&gt;&lt;div&gt;+&amp;nbsp;&lt;b&gt;GetState&lt;/b&gt;():&amp;nbsp;&lt;span style=&quot;background-color: initial;&quot;&gt;TObjectPtr&amp;lt;AGraphNode&amp;gt;&lt;/span&gt;&lt;/div&gt;&lt;div&gt;+&amp;nbsp;&lt;b&gt;GetValue&lt;/b&gt;():&amp;nbsp;&lt;span style=&quot;background-color: initial;&quot;&gt;float&lt;/span&gt;&lt;span style=&quot;background-color: initial;&quot;&gt;&lt;/span&gt;&lt;/div&gt;&lt;div&gt;&lt;span style=&quot;background-color: initial;&quot;&gt;+&amp;nbsp;&lt;/span&gt;&lt;span style=&quot;background-color: initial;&quot;&gt;Initialize(&lt;/span&gt;&lt;span style=&quot;background-color: initial;&quot;&gt;newState:&amp;nbsp;&lt;/span&gt;&lt;span style=&quot;background-color: initial;&quot;&gt;TObjectPtr&amp;lt;AGraphNode&amp;gt;, endCoordinates: FVector, extraCost: float): void&lt;/span&gt;&lt;/div&gt;&lt;div&gt;+&amp;nbsp;&lt;b&gt;operator&amp;lt;&lt;/b&gt;(&lt;b&gt;other&lt;/b&gt;: UValueNode&amp;amp;): bool&lt;/div&gt;&lt;div&gt;+&amp;nbsp;SetExtraCost(extraCost: float): void&lt;/div&gt;&lt;div&gt;+&amp;nbsp;UValueNode();&lt;/div&gt;&lt;div&gt;+&amp;nbsp;UValueNode(&lt;span style=&quot;background-color: initial;&quot;&gt;newState:&amp;nbsp;&lt;/span&gt;&lt;span style=&quot;background-color: initial;&quot;&gt;TObjectPtr&amp;lt;AGraphNode&amp;gt;, endCoordinates: FVector, extraCost: float)&lt;/span&gt;&amp;nbsp;&lt;/div&gt;" style="text;strokeColor=none;fillColor=none;align=left;verticalAlign=top;spacingLeft=4;spacingRight=4;overflow=hidden;rotatable=0;points=[[0,0.5],[1,0.5]];portConstraint=eastwest;whiteSpace=wrap;html=1;" vertex="1" parent="ktp8bwMWxdayU_RDx3ty-4">
          <mxGeometry y="88" width="530" height="142" as="geometry" />
        </mxCell>
        <mxCell id="ktp8bwMWxdayU_RDx3ty-11" style="edgeStyle=orthogonalEdgeStyle;rounded=0;orthogonalLoop=1;jettySize=auto;html=1;endSize=12;startSize=12;endArrow=open;endFill=0;dashed=1;strokeWidth=2;" edge="1" parent="WIyWlLk6GJQsqaUBKTNV-1" source="oYd0NgwK_6_6nimxyRu1-9" target="ktp8bwMWxdayU_RDx3ty-4">
          <mxGeometry relative="1" as="geometry">
            <mxPoint x="-330" y="786" as="sourcePoint" />
            <mxPoint x="-430" y="710" as="targetPoint" />
            <Array as="points">
              <mxPoint x="1420" y="-540" />
              <mxPoint x="1420" y="-540" />
            </Array>
          </mxGeometry>
        </mxCell>
        <mxCell id="ktp8bwMWxdayU_RDx3ty-12" value="&amp;lt;&amp;lt;creates&amp;gt;&amp;gt;" style="edgeLabel;html=1;align=center;verticalAlign=middle;resizable=0;points=[];" vertex="1" connectable="0" parent="ktp8bwMWxdayU_RDx3ty-11">
          <mxGeometry x="0.0568" y="-5" relative="1" as="geometry">
            <mxPoint as="offset" />
          </mxGeometry>
        </mxCell>
        <mxCell id="ktp8bwMWxdayU_RDx3ty-0" value="AWaveManagerLevelOne" style="swimlane;fontStyle=1;align=center;verticalAlign=top;childLayout=stackLayout;horizontal=1;startSize=26;horizontalStack=0;resizeParent=1;resizeParentMax=0;resizeLast=0;collapsible=1;marginBottom=0;whiteSpace=wrap;html=1;" vertex="1" parent="WIyWlLk6GJQsqaUBKTNV-1">
          <mxGeometry x="110" y="-510" width="340" height="140" as="geometry" />
        </mxCell>
        <mxCell id="ktp8bwMWxdayU_RDx3ty-1" value="+ StrongEnemyClassw:&amp;nbsp;TSubclassOf&amp;lt;AAbstractEnemy&amp;gt;&lt;div&gt;+ WeakEnemyClass:&amp;nbsp;TSubclassOf&amp;lt;AAbstractEnemy&amp;gt;&lt;/div&gt;" style="text;strokeColor=none;fillColor=none;align=left;verticalAlign=top;spacingLeft=4;spacingRight=4;overflow=hidden;rotatable=0;points=[[0,0.5],[1,0.5]];portConstraint=eastwest;whiteSpace=wrap;html=1;" vertex="1" parent="ktp8bwMWxdayU_RDx3ty-0">
          <mxGeometry y="26" width="340" height="44" as="geometry" />
        </mxCell>
        <mxCell id="ktp8bwMWxdayU_RDx3ty-2" value="" style="line;strokeWidth=1;fillColor=none;align=left;verticalAlign=middle;spacingTop=-1;spacingLeft=3;spacingRight=3;rotatable=0;labelPosition=right;points=[];portConstraint=eastwest;strokeColor=inherit;" vertex="1" parent="ktp8bwMWxdayU_RDx3ty-0">
          <mxGeometry y="70" width="340" height="8" as="geometry" />
        </mxCell>
        <mxCell id="ktp8bwMWxdayU_RDx3ty-3" value="+&amp;nbsp;AWaveManagerLevelOne()&lt;div&gt;# BeginPlay(): void&lt;/div&gt;&lt;div&gt;# EndPlay(&lt;b&gt;EndPlayReason:&amp;nbsp;&lt;/b&gt;&lt;span style=&quot;background-color: initial;&quot;&gt;&lt;b&gt;EEndPlayReason::Type&lt;/b&gt;&lt;/span&gt;&lt;span style=&quot;background-color: initial;&quot;&gt;):&amp;nbsp;&lt;/span&gt;&lt;span style=&quot;background-color: initial;&quot;&gt;void&lt;/span&gt;&lt;/div&gt;" style="text;strokeColor=none;fillColor=none;align=left;verticalAlign=top;spacingLeft=4;spacingRight=4;overflow=hidden;rotatable=0;points=[[0,0.5],[1,0.5]];portConstraint=eastwest;whiteSpace=wrap;html=1;" vertex="1" parent="ktp8bwMWxdayU_RDx3ty-0">
          <mxGeometry y="78" width="340" height="62" as="geometry" />
        </mxCell>
      </root>
    </mxGraphModel>
  </diagram>
</mxfile>
